<svg width="50" height="50" viewBox="0 0 50 50" fill="none" xmlns="http://www.w3.org/2000/svg">
<path d="M50 25C50 28.283 49.3533 31.5339 48.097 34.5671C46.8406 37.6002 44.9991 40.3562 42.6777 42.6777C40.3562 44.9991 37.6002 46.8406 34.5671 48.097C31.5339 49.3533 28.283 50 25 50C21.7169 50 18.466 49.3533 15.4329 48.097C12.3998 46.8406 9.64379 44.9991 7.32233 42.6777C5.00086 40.3562 3.15938 37.6002 1.90301 34.5671C0.646643 31.5339 -2.87013e-07 28.283 0 25H4.49106C4.49106 27.6933 5.02154 30.3602 6.05221 32.8484C7.08288 35.3367 8.59356 37.5976 10.498 39.502C12.4024 41.4064 14.6633 42.9171 17.1516 43.9478C19.6398 44.9785 22.3067 45.5089 25 45.5089C27.6933 45.5089 30.3602 44.9785 32.8484 43.9478C35.3367 42.9171 37.5976 41.4064 39.502 39.502C41.4064 37.5976 42.9171 35.3367 43.9478 32.8484C44.9785 30.3602 45.5089 27.6933 45.5089 25H50Z" fill="black" fill-opacity="0.17"/>
<path d="M5.44383e-06 25C5.01156e-06 20.0555 1.46623 15.222 4.21326 11.1108C6.9603 6.99953 10.8648 3.79521 15.4329 1.90302C20.0011 0.0108325 25.0277 -0.484251 29.8773 0.480379C34.7268 1.44501 39.1814 3.82602 42.6777 7.32234C46.174 10.8186 48.555 15.2732 49.5196 20.1227C50.4843 24.9723 49.9892 29.9989 48.097 34.5671C46.2048 39.1352 43.0005 43.0397 38.8893 45.7867C34.778 48.5338 29.9445 50 25 50L25 45.5423C29.0629 45.5423 33.0345 44.3375 36.4127 42.0803C39.7908 39.823 42.4238 36.6148 43.9786 32.8612C45.5334 29.1076 45.9402 24.9772 45.1475 20.9924C44.3549 17.0076 42.3985 13.3473 39.5256 10.4744C36.6527 7.60156 32.9924 5.6451 29.0076 4.85247C25.0228 4.05984 20.8924 4.46665 17.1388 6.02144C13.3852 7.57624 10.177 10.2092 7.91974 13.5873C5.66253 16.9655 4.45775 20.9371 4.45775 25L5.44383e-06 25Z" fill="#84006F"/>
<path d="M27 25.9091H28.5V28.4727L30.94 29.7545L30.19 30.9364L27 29.2636V25.9091ZM31 21.3636H17V31.3636H21.67C21.24 30.5364 21 29.6091 21 28.6364C21 26.9486 21.7375 25.33 23.0503 24.1366C24.363 22.9432 26.1435 22.2727 28 22.2727C29.07 22.2727 30.09 22.4909 31 22.8818V21.3636ZM17 33.1818C16.4696 33.1818 15.9609 32.9903 15.5858 32.6493C15.2107 32.3083 15 31.8458 15 31.3636V18.6364C15 17.6273 15.89 16.8182 17 16.8182H18V15H20V16.8182H28V15H30V16.8182H31C31.5304 16.8182 32.0391 17.0097 32.4142 17.3507C32.7893 17.6917 33 18.1542 33 18.6364V24.1818C34.24 25.3273 35 26.9 35 28.6364C35 30.3241 34.2625 31.9427 32.9497 33.1361C31.637 34.3295 29.8565 35 28 35C26.09 35 24.36 34.3091 23.1 33.1818H17ZM28 24.2273C26.7137 24.2273 25.4801 24.6918 24.5705 25.5187C23.661 26.3455 23.15 27.467 23.15 28.6364C23.15 31.0727 25.32 33.0455 28 33.0455C28.6369 33.0455 29.2676 32.9314 29.856 32.7098C30.4444 32.4883 30.9791 32.1635 31.4295 31.7541C31.8798 31.3446 32.2371 30.8586 32.4808 30.3236C32.7246 29.7887 32.85 29.2154 32.85 28.6364C32.85 26.2 30.68 24.2273 28 24.2273Z" fill="#525252"/>
</svg>
