<svg width="50" height="50" viewBox="0 0 50 50" fill="none" xmlns="http://www.w3.org/2000/svg">
<path d="M25 50C21.7169 50 18.466 49.3533 15.4329 48.097C12.3998 46.8406 9.64379 44.9991 7.32233 42.6777C5.00086 40.3562 3.15938 37.6002 1.90301 34.5671C0.646642 31.5339 -8.74067e-07 28.283 0 25C8.74068e-07 21.7169 0.646646 18.466 1.90301 15.4329C3.15938 12.3998 5.00087 9.64379 7.32234 7.32232C9.6438 5.00086 12.3998 3.15937 15.4329 1.90301C18.4661 0.646641 21.717 -1.60463e-06 25 0L25 4.49106C22.3067 4.49106 19.6398 5.02154 17.1516 6.0522C14.6633 7.08287 12.4024 8.59355 10.498 10.498C8.59356 12.4024 7.08288 14.6633 6.05221 17.1516C5.02154 19.6398 4.49106 22.3067 4.49106 25C4.49106 27.6933 5.02154 30.3602 6.05221 32.8484C7.08288 35.3367 8.59355 37.5976 10.498 39.502C12.4024 41.4064 14.6633 42.9171 17.1516 43.9478C19.6398 44.9785 22.3067 45.5089 25 45.5089L25 50Z" fill="black" fill-opacity="0.17"/>
<path d="M5.44383e-06 25C5.01156e-06 20.0555 1.46623 15.222 4.21326 11.1108C6.9603 6.99953 10.8648 3.79521 15.4329 1.90302C20.0011 0.0108311 25.0277 -0.484253 29.8773 0.480377C34.7268 1.44501 39.1814 3.82603 42.6777 7.32234C46.174 10.8186 48.555 15.2732 49.5196 20.1227C50.4843 24.9723 49.9892 29.9989 48.097 34.5671C46.2048 39.1352 43.0005 43.0397 38.8893 45.7867C34.778 48.5338 29.9445 50 25 50L25 45.5423C29.0629 45.5423 33.0345 44.3375 36.4127 42.0803C39.7908 39.823 42.4238 36.6148 43.9786 32.8612C45.5334 29.1076 45.9402 24.9772 45.1475 20.9924C44.3549 17.0076 42.3984 13.3473 39.5256 10.4744C36.6527 7.60156 32.9924 5.6451 29.0076 4.85247C25.0228 4.05984 20.8924 4.46665 17.1388 6.02144C13.3852 7.57624 10.177 10.2092 7.91974 13.5873C5.66253 16.9655 4.45775 20.9371 4.45775 25L5.44383e-06 25Z" fill="#68DDA9"/>
<path fill-rule="evenodd" clip-rule="evenodd" d="M21.048 15.7896C20.873 15.5394 20.6652 15.3409 20.4365 15.2054C20.2077 15.0699 19.9626 15.0001 19.715 15C19.4673 14.9999 19.2221 15.0694 18.9934 15.2046C18.7646 15.3399 18.5567 15.5382 18.3815 15.7882L18.0295 16.291C17.6891 16.1526 17.329 16.1472 16.9867 16.2755C16.6444 16.4038 16.3325 16.661 16.0835 17.0203C15.7096 17.5598 15.4999 18.2883 15.4999 19.0474C15.4999 19.8066 15.7096 20.535 16.0835 21.0745L16.5 21.6738V29.2858H15V30.7144H16.025C15.7767 31.0619 15.6065 31.5073 15.536 31.9936C15.4656 32.4799 15.4982 32.9852 15.6296 33.4449C15.761 33.9047 15.9852 34.2982 16.2738 34.5751C16.5624 34.8521 16.9021 35 17.2498 35C17.5974 35 17.9371 34.8521 18.2257 34.5751C18.5143 34.2982 18.7385 33.9047 18.8699 33.4449C19.0013 32.9852 19.0339 32.4799 18.9635 31.9936C18.893 31.5073 18.7228 31.0619 18.4745 30.7144H31.5255C31.2772 31.0619 31.107 31.5073 31.0365 31.9936C30.9661 32.4799 30.9987 32.9852 31.1301 33.4449C31.2615 33.9047 31.4857 34.2982 31.7743 34.5751C32.0629 34.8521 32.4026 35 32.7503 35C33.0979 35 33.4376 34.8521 33.7262 34.5751C34.0148 34.2982 34.239 33.9047 34.3704 33.4449C34.5018 32.9852 34.5344 32.4799 34.464 31.9936C34.3935 31.5073 34.2233 31.0619 33.975 30.7144H35V29.2858H33V27.0623C33.4294 26.9088 33.8104 26.5543 34.0822 26.0553C34.3541 25.5564 34.5012 24.9418 34.5 24.3095C34.5 22.7452 33.6195 21.476 32.533 21.476H22.055C22.0348 21.476 22.0147 21.4704 21.996 21.4594C21.9773 21.4483 21.9603 21.4321 21.946 21.4117L21.763 21.1474L21.9475 20.8853C22.1227 20.6352 22.2617 20.3384 22.3565 20.0116C22.4513 19.6848 22.5002 19.3345 22.5002 18.9808C22.5003 18.627 22.4515 18.2768 22.3568 17.9499C22.262 17.6231 22.1231 17.3262 21.948 17.076L21.048 15.7903V15.7896ZM21.058 20.1346L21.2405 19.8746C21.3227 19.7571 21.388 19.6177 21.4325 19.4643C21.477 19.3109 21.4999 19.1464 21.4999 18.9803C21.4999 18.8142 21.477 18.6497 21.4325 18.4963C21.388 18.3428 21.3227 18.2034 21.2405 18.086L20.3405 16.8003C20.1746 16.563 19.9495 16.4296 19.7147 16.4293C19.4799 16.429 19.2547 16.562 19.0885 16.7989L18.9135 17.0489L21.0585 20.1346H21.058ZM33.5 24.3095C33.5 23.5224 33.059 22.9045 32.533 22.9045H22.055C21.903 22.9045 21.7524 22.8617 21.6121 22.7783C21.4717 22.6949 21.3442 22.5728 21.237 22.4188L18.184 18.0274C18.0931 17.8958 17.9849 17.7912 17.8655 17.7198C17.7461 17.6484 17.6179 17.6117 17.4885 17.6117C17.3591 17.6117 17.2309 17.6484 17.1115 17.7198C16.9921 17.7912 16.8839 17.8958 16.793 18.0274C16.6052 18.2993 16.5 18.6659 16.5 19.0478C16.5 19.4297 16.6052 19.7963 16.793 20.0681L20.719 25.7145H32.533C33.06 25.7145 33.5 25.0966 33.5 24.3095ZM20.1375 26.9052C20.2435 27.0573 20.3865 27.143 20.536 27.143H32V29.2858H17.5V23.1116L20.1375 26.9052ZM18 32.5001C18 32.7842 17.921 33.0567 17.7803 33.2577C17.6397 33.4586 17.4489 33.5715 17.25 33.5715C17.0511 33.5715 16.8603 33.4586 16.7197 33.2577C16.579 33.0567 16.5 32.7842 16.5 32.5001C16.5 32.2159 16.579 31.9434 16.7197 31.7425C16.8603 31.5415 17.0511 31.4286 17.25 31.4286C17.4489 31.4286 17.6397 31.5415 17.7803 31.7425C17.921 31.9434 18 32.2159 18 32.5001ZM32.75 33.5715C32.9489 33.5715 33.1397 33.4586 33.2803 33.2577C33.421 33.0567 33.5 32.7842 33.5 32.5001C33.5 32.2159 33.421 31.9434 33.2803 31.7425C33.1397 31.5415 32.9489 31.4286 32.75 31.4286C32.5511 31.4286 32.3603 31.5415 32.2197 31.7425C32.079 31.9434 32 32.2159 32 32.5001C32 32.7842 32.079 33.0567 32.2197 33.2577C32.3603 33.4586 32.5511 33.5715 32.75 33.5715Z" fill="black"/>
</svg>
