<svg width="50" height="50" viewBox="0 0 50 50" fill="none" xmlns="http://www.w3.org/2000/svg">
<path d="M15 17H35V32H15V17Z" fill="#D0CFCE"/>
<path d="M15 15H18.6V17.7623H15V15Z" fill="#EA5A47"/>
<path d="M19.7441 15H23.3441V17.7623H19.7441V15Z" fill="#FCEA2B"/>
<path d="M24.4883 15H28.0883V17.7623H24.4883V15Z" fill="#B1CC33"/>
<path d="M22.4844 25.322H24.3451V27.9949H25.6547V25.322H27.5155V23.4408H25.6547V20.7686H24.3451V23.4408H22.4844V25.322Z" fill="#D22F27"/>
<path d="M25.6546 20.7674V23.4403H27.5149V25.3215H25.6546V27.9944H24.345V25.3215H22.4842V23.4403H24.345V20.7674H25.6546ZM25.6546 19.3486H24.345C24.083 19.3486 23.8318 19.4981 23.6466 19.7642C23.4614 20.0302 23.3573 20.3911 23.3573 20.7674V22.0215H22.4842C22.2223 22.0215 21.9711 22.171 21.7859 22.4371C21.6006 22.7031 21.4966 23.064 21.4966 23.4403V25.3215C21.4966 25.6978 21.6006 26.0587 21.7859 26.3247C21.9711 26.5908 22.2223 26.7403 22.4842 26.7403H23.3573V27.9944C23.3573 28.3707 23.4614 28.7316 23.6466 28.9976C23.8318 29.2637 24.083 29.4132 24.345 29.4132H25.6546C25.9165 29.4132 26.1678 29.2637 26.353 28.9976C26.5382 28.7316 26.6423 28.3707 26.6423 27.9944V26.7403H27.5149C27.7768 26.7403 28.028 26.5908 28.2132 26.3247C28.3985 26.0587 28.5025 25.6978 28.5025 25.3215V23.4403C28.5025 23.064 28.3985 22.7031 28.2132 22.4371C28.028 22.171 27.7768 22.0215 27.5149 22.0215H26.6423V20.7674C26.6423 20.3911 26.5382 20.0302 26.353 19.7642C26.1678 19.4981 25.9165 19.3486 25.6546 19.3486Z" fill="black"/>
<path d="M50 25C50 28.283 49.3533 31.5339 48.097 34.5671C46.8406 37.6002 44.9991 40.3562 42.6777 42.6777C40.3562 44.9991 37.6002 46.8406 34.5671 48.097C31.5339 49.3533 28.283 50 25 50C21.7169 50 18.466 49.3533 15.4329 48.097C12.3998 46.8406 9.64379 44.9991 7.32233 42.6777C5.00086 40.3562 3.15938 37.6002 1.90301 34.5671C0.646643 31.5339 -2.87013e-07 28.283 0 25L4.49106 25C4.49106 27.6933 5.02154 30.3602 6.05221 32.8484C7.08288 35.3367 8.59356 37.5976 10.498 39.502C12.4024 41.4064 14.6633 42.9171 17.1516 43.9478C19.6398 44.9785 22.3067 45.5089 25 45.5089C27.6933 45.5089 30.3602 44.9785 32.8484 43.9478C35.3367 42.9171 37.5976 41.4064 39.502 39.502C41.4064 37.5976 42.9171 35.3367 43.9478 32.8484C44.9785 30.3602 45.5089 27.6933 45.5089 25H50Z" fill="black" fill-opacity="0.17"/>
<path d="M5.44383e-06 25C5.01156e-06 20.0555 1.46623 15.222 4.21326 11.1108C6.9603 6.99953 10.8648 3.79521 15.4329 1.90302C20.0011 0.0108311 25.0277 -0.484253 29.8773 0.480377C34.7268 1.44501 39.1814 3.82603 42.6777 7.32234C46.174 10.8186 48.555 15.2732 49.5196 20.1227C50.4843 24.9723 49.9892 29.9989 48.097 34.5671C46.2048 39.1352 43.0005 43.0397 38.8893 45.7867C34.778 48.5338 29.9445 50 25 50L25 45.5423C29.0629 45.5423 33.0345 44.3375 36.4127 42.0803C39.7908 39.823 42.4238 36.6148 43.9786 32.8612C45.5334 29.1076 45.9402 24.9772 45.1475 20.9924C44.3549 17.0076 42.3984 13.3473 39.5256 10.4744C36.6527 7.60156 32.9924 5.6451 29.0076 4.85247C25.0228 4.05984 20.8924 4.46665 17.1388 6.02144C13.3852 7.57624 10.177 10.2092 7.91974 13.5873C5.66253 16.9655 4.45775 20.9371 4.45775 25L5.44383e-06 25Z" fill="#DF5992"/>
</svg>
